<?xml version="1.0"?>
<svg xmlns="http://www.w3.org/2000/svg" viewBox="0 0 50 50" enable-background="new 0 0 50 50">
    <path d="M 5 2 C 3.3 2 2 3.3 2 5 L 2 45 C 2 45.5 2.1125 45.9125 2.3125 46.3125 L 46.3125 2.3125 C 45.9125 2.1125 45.5 2 45 2 L 5 2 z M 47.6875 3.6875 L 3.6875 47.6875 C 4.0875 47.8875 4.5 48 5 48 L 45 48 C 46.7 48 48 46.7 48 45 L 48 5 C 48 4.5 47.8875 4.0875 47.6875 3.6875 z M 12.5 11 C 14.3 10.9 15.99375 11.7125 17.59375 13.3125 C 18.79375 14.5125 19.9875 15.1 21.1875 15 C 22.8875 14.9 24.0875 13.40625 24.1875 13.40625 L 25.8125 14.59375 C 25.7125 14.69375 24.00625 16.8 21.40625 17 L 21.09375 17 C 19.49375 17 17.8125 16.1875 16.3125 14.6875 C 15.1125 13.4875 13.8875 12.9 12.6875 13 C 10.9875 13.1 9.7875 14.59375 9.6875 14.59375 L 8.09375 13.40625 C 8.19375 13.30625 9.8 11.2 12.5 11 z M 26 33 L 42 33 L 42 35 L 26 35 L 26 33 z M 26 37 L 32 37 L 32 39 L 26 39 L 26 37 z M 36 37 L 42 37 L 42 39 L 36 39 L 36 37 z"/>
</svg>
